<svg width="400" height="400" viewBox="0 0 400 400" xmlns="http://www.w3.org/2000/svg">
  <defs>
    <radialGradient id="bgGrad" cx="50%" cy="50%" r="50%">
      <stop offset="0%" style="stop-color:#2c1e12;stop-opacity:1" />
      <stop offset="100%" style="stop-color:#0f0f0f;stop-opacity:1" />
    </radialGradient>
    <linearGradient id="goldGrad" x1="0%" y1="0%" x2="100%" y2="100%">
      <stop offset="0%" style="stop-color:#FFD700;stop-opacity:1" />
      <stop offset="100%" style="stop-color:#B8860B;stop-opacity:1" />
    </linearGradient>
  </defs>

  <circle cx="200" cy="200" r="190" fill="url(#bgGrad)" stroke="#444" stroke-width="2"/>

  <circle cx="200" cy="200" r="160" fill="none" stroke="#FFD700" stroke-width="1" stroke-dasharray="10,15" opacity="0.4"/>
  <circle cx="200" cy="200" r="145" fill="none" stroke="#DAA520" stroke-width="2" stroke-dasharray="80,20" opacity="0.6"/>

  <path d="M185 280 L215 280 L220 120 L200 80 L180 120 Z" fill="url(#goldGrad)">
    <animate attributeName="opacity" values="0.8;1;0.8" dur="3s" repeatCount="indefinite" />
  </path>
  
  <g fill="#FFD700">
    <circle cx="200" cy="80" r="4" />
    <circle cx="220" cy="120" r="3" />
    <circle cx="180" cy="120" r="3" />
    <line x1="200" y1="80" x2="250" y2="60" stroke="#FFD700" stroke-width="1" opacity="0.5" />
    <line x1="185" y1="200" x2="140" y2="180" stroke="#FFD700" stroke-width="1" opacity="0.5" />
    <circle cx="250" cy="60" r="2" />
    <circle cx="140" cy="180" r="2" />
  </g>

  <text x="200" y="330" text-anchor="middle" font-family="Arial, sans-serif" font-weight="bold" font-size="22" fill="#FFD700" letter-spacing="2">THE LIVING HISTORY</text>
  <text x="200" y="355" text-anchor="middle" font-family="Arial, sans-serif" font-size="12" fill="#DAA520" letter-spacing="1">RE:LIVING HISTORY SYSTEM</text>
  
  <rect x="130" y="365" width="140" height="20" rx="10" fill="rgba(218, 165, 32, 0.2)" />
  <text x="200" y="379" text-anchor="middle" font-family="Arial, sans-serif" font-size="10" fill="#FFF">CODE KIDS DUO</text>
</svg>